<?xml version="1.0" encoding="utf-8"?>
<!-- Generator: Adobe Illustrator 16.0.0, SVG Export Plug-In . SVG Version: 6.00 Build 0)  -->
<!DOCTYPE svg PUBLIC "-//W3C//DTD SVG 1.1//EN" "http://www.w3.org/Graphics/SVG/1.1/DTD/svg11.dtd">
<svg version="1.1" id="Layer_1" xmlns="http://www.w3.org/2000/svg" xmlns:xlink="http://www.w3.org/1999/xlink" x="0px" y="0px"
	 width="159.209px" height="159.214px" viewBox="0 0 159.209 159.214" enable-background="new 0 0 159.209 159.214"
	 xml:space="preserve">
<g>
	<path fill-rule="evenodd" clip-rule="evenodd" fill="#FEFEFE" d="M79.486,159.095c-24.997,0-49.995-0.116-74.989,0.118
		c-4.019,0.038-4.474-1.203-4.465-4.736C0.153,104.483,0.175,54.489,0,4.497c-0.014-4.014,1.199-4.473,4.732-4.464
		C54.725,0.153,104.72,0.175,154.712,0c4.015-0.015,4.474,1.199,4.465,4.732c-0.121,49.994-0.143,99.988,0.032,149.98
		c0.014,4.015-1.197,4.49-4.732,4.468C129.481,159.02,104.483,159.095,79.486,159.095z"/>
	<path fill-rule="evenodd" clip-rule="evenodd" fill="#00B4A2" d="M78.642,151.096c-39.725-0.012-71.616-32.454-71.51-72.909
		C7.233,39.431,39.602,6.598,80.134,7.082c38.262,0.457,71.708,32.123,70.968,73.472
		C150.413,119.007,118.906,151.293,78.642,151.096z"/>
	<path fill-rule="evenodd" clip-rule="evenodd" fill="#FCFDFD" d="M126.101,73.756c0,3.661-0.025,7.323,0.007,10.983
		c0.035,4.021-1.93,6.363-5.93,6.273c-2.823-0.063-3.346,1.144-3.236,3.531c0.152,3.322,0.098,6.654,0.152,9.981
		c0.039,2.386-0.139,6.002-2.257,6.044c-6.199,0.123-7.669,8.399-13.968,7.459c-4.334-0.646-3.57-6.253-5.786-7.366
		c-2.76-1.388-6.372-1.011-7.859-4.691c-0.515-1.274,0.647-3.896-1.123-3.754c-3.106,0.25-5.238-3.202-8.868-1.316
		c-2.833,1.473-5.647,1.819-6.264,5.871c-0.644,4.232-5.583,2.212-7.468,3.985c-1.835,1.728-0.941,6.166-4.35,7.094
		c-2.823,0.77-6.354,0.963-7.434-2.862c-0.694-2.456-1.809-2.945-4.117-2.854c-4.024,0.16-5.55-2.27-5.498-6.044
		c0.053-3.827-0.089-7.659,0.051-11.481c0.087-2.39-0.35-3.678-3.206-3.584c-4.278,0.141-6.117-2.046-5.915-6.511
		c0.294-6.478,0.438-13,0.016-19.463c-1.193-18.317,17.482-25.392,29.955-22.275c5.644,1.41,10.544,4.188,13.861,8.905
		c2.258,3.21,3.345,2.258,5.37-0.022c8.546-9.625,17.542-11.901,29.336-7.681c9.005,3.222,14.421,10.799,14.485,20.292
		c0.021,3.162,0.003,6.324,0.003,9.486C126.073,73.756,126.087,73.756,126.101,73.756z"/>
	<path fill-rule="evenodd" clip-rule="evenodd" fill="#00B4A2" d="M81.271,62.143c1.121-11.182,9.693-18.193,21.687-17.738
		c12.09,0.459,20.023,8.103,20.115,19.449c0.055,6.826-0.009,13.654,0.039,20.48c0.016,2.122-0.121,4.488-2.637,4.586
		c-2.74,0.106-3.305-2.386-3.345-4.64c-0.078-4.328-0.098-8.662,0.043-12.987c0.085-2.594-0.598-3.962-3.511-4.19
		c-6.321-0.496-10.437-3.796-11.529-10.262c-0.219-1.297-0.478-2.403-2.03-1.965c-1.431,0.402-1.402,1.707-1.172,2.902
		c1.154,5.975,4.735,9.9,10.573,11.284c3.665,0.868,4.853,2.406,4.709,6.293c-0.361,9.812-0.133,19.647-0.104,29.473
		c0.007,2.24,0.062,4.945-2.696,5.063c-2.98,0.127-3.344-2.5-3.325-5.033c0.061-8.16,0.079-16.321-0.017-24.48
		c-0.019-1.602,0.971-4.381-1.67-4.331c-1.987,0.038-1.388,2.649-1.389,4.221c-0.008,9.991,0.042,19.983,0.082,29.976
		c0.011,2.541,0.145,5.707-3.254,5.542c-2.931-0.143-2.782-3.208-2.753-5.559c0.121-9.653,0.256-19.306,0.386-28.958
		c0.007-0.499,0.097-1.015,0.005-1.496c-0.285-1.486,0.453-3.927-1.933-3.826c-1.968,0.083-1.439,2.293-1.452,3.705
		c-0.068,7.16-0.065,14.321-0.104,21.481c-0.007,1.164-0.006,2.34-0.172,3.486c-0.24,1.655-0.468,3.474-2.778,3.438
		c-2.463-0.039-2.937-1.736-2.933-3.755c0.013-6.329,0.025-12.657,0.038-18.985c0.004-1.996,0.031-3.993,0.006-5.989
		c-0.019-1.468,0.121-3.626-1.672-3.551c-1.884,0.078-1.396,2.294-1.403,3.717c-0.023,4.995,0.034,9.992,0.033,14.987
		c-0.001,2.061-0.198,4.47-2.682,4.608c-2.754,0.153-3.357-2.158-3.322-4.535c0.061-4.16,0.106-8.32,0.158-12.479
		C81.852,75.429,81.835,68.786,81.271,62.143z"/>
	<path fill-rule="evenodd" clip-rule="evenodd" fill="#00B4A2" d="M47.097,70.232c5.553-2.04,10.738-4.506,12.494-10.894
		c0.428-1.555,1.471-3.661-0.531-4.373c-2.451-0.871-2.277,1.76-2.589,3.142c-1.296,5.734-5.516,8.063-10.65,8.98
		c-3.47,0.62-4.774,2.35-4.706,5.695c0.088,4.322,0.017,8.648-0.028,12.97c-0.019,1.807-0.482,3.463-2.747,3.264
		c-1.866-0.165-2.23-1.605-2.226-3.263c0.024-8.647-0.123-17.297,0.058-25.94c0.084-4.016,2.449-7.044,5.373-9.682
		c9.575-8.635,26.945-6.964,33.548,3.201c1.693,2.605,2.576,5.405,2.568,8.422c-0.014,4.794-0.264,9.588-0.412,14.381
		c-1.287,7.309-0.711,14.64-0.275,21.97c-3.713,1.622-4.643,1.207-4.771-2.604c-0.175-5.152-0.084-10.313-0.107-15.47
		c-0.008-1.645,0.182-4.059-1.775-4.009c-2.155,0.056-1.509,2.586-1.514,4.118c-0.02,6.985,0.087,13.971,0.135,20.956
		c0.008,1.163,0.104,2.357-0.116,3.483c-0.355,1.813-0.845,3.76-3.354,3.475c-2.198-0.25-2.365-1.981-2.374-3.716
		c-0.045-8.316-0.039-16.635-0.148-24.951c-0.033-2.422,0.02-5.503-3.657-2.255c-1.424,2.626-0.672,5.466-0.645,8.182
		c0.083,8.248-0.492,16.503,0.356,24.75c0.265,2.576-0.121,5.174-3.842,4.844c-1.783-1.189-1.011-3.02-1.022-4.563
		c-0.074-9.627-0.041-19.255-0.048-28.882c-0.001-1.161,0.068-2.335-0.084-3.478c-0.139-1.041-0.752-1.881-1.966-1.738
		c-1.122,0.132-1.077,1.197-1.087,1.931c-0.06,4.313-0.022,8.627-0.02,12.94c0.003,4.648,0.138,9.301-0.034,13.943
		c-0.153,4.109-1.242,4.892-4.775,4.049c-1.103-12.323-0.278-24.671-0.421-37.005C45.693,71.19,46.344,70.644,47.097,70.232z"/>
	<path fill-rule="evenodd" clip-rule="evenodd" fill="#03A590" d="M55.162,114.909c2.205-0.897,3.071-2.341,3.019-4.9
		c-0.189-9.277-0.113-18.563-0.041-27.844c0.013-1.712-0.757-3.711,1.154-5.03c0.11,10.473,0.242,20.944,0.311,31.418
		c0.012,1.812,0.069,3.721-0.451,5.412C58.508,116.062,57.045,116.937,55.162,114.909z"/>
	<path fill-rule="evenodd" clip-rule="evenodd" fill="#00A18D" d="M47.097,70.232c-1.208,1.772-0.991,3.788-0.99,5.768
		c0.007,11.037,0.012,22.074,0.018,33.111c-1.879-1.083-1.133-2.929-1.144-4.438C44.907,94.449,44.894,84.224,45.001,74
		C45.016,72.572,43.734,69.977,47.097,70.232z"/>
	<path fill-rule="evenodd" clip-rule="evenodd" fill="#00A08A" d="M76.976,98.106c-1.219-7.34-1.797-14.672,0.275-21.97
		C77.286,83.462,77.928,90.794,76.976,98.106z"/>
	<path fill-rule="evenodd" clip-rule="evenodd" fill="#009F8D" d="M81.271,62.143c1.348,6.644,1.364,13.287-0.008,19.931
		C81.267,75.429,81.269,68.785,81.271,62.143z"/>
</g>
</svg>
