<?xml version="1.0" encoding="utf-8"?>
<!-- Generator: Adobe Illustrator 16.0.0, SVG Export Plug-In . SVG Version: 6.00 Build 0)  -->
<!DOCTYPE svg PUBLIC "-//W3C//DTD SVG 1.1//EN" "http://www.w3.org/Graphics/SVG/1.1/DTD/svg11.dtd">
<svg version="1.1" id="Layer_1" xmlns="http://www.w3.org/2000/svg" xmlns:xlink="http://www.w3.org/1999/xlink" x="0px" y="0px"
	 width="157.98px" height="157.98px" viewBox="0 0 157.98 157.98" enable-background="new 0 0 157.98 157.98" xml:space="preserve">
<g>
	<g>
		<path fill="#FEFEFE" d="M159.98,80.99c0,25.33-0.042,50.66,0.064,75.99c0.011,2.501-0.565,3.066-3.064,3.063
			c-50.993-0.085-101.987-0.085-152.981,0c-2.499,0.004-3.066-0.563-3.063-3.063C1.021,105.987,1.021,54.993,0.937,4
			C0.932,1.5,1.5,0.933,4,0.937c50.994,0.085,101.988,0.085,152.981,0C159.48,0.933,160.056,1.5,160.046,4
			C159.939,29.662,159.98,55.326,159.98,80.99z M79.671,151.984c39.736,0.011,72.282-32.029,72.313-71.191
			c0.031-40.146-31.826-72.761-71.11-72.797C40.576,7.96,8.026,39.769,7.996,79.218C7.965,119.594,39.858,151.974,79.671,151.984z"
			/>
		<circle fill="#02B4A3" cx="80.491" cy="78.279" r="73.123"/>
		<path fill="#ECF3F2" d="M127.736,77.923c0,0,0.059,0.312,0.059,0.313c-0.905,0.671-0.935,1.642-0.902,2.634
			c-2.057,5.082-4.953,10.355-8.351,13.867c-4.126,4.268-7.229,10.215-13.353,12.504c-0.155,0.059-0.448,0.059-0.464,0.133
			c-1.463,6.748-8.576,7.277-12.468,11.34c-2.413,2.521-4.608,5.289-7.242,7.551c-4.156,3.566-9.943,2.213-11.879-2.908
			c-0.933-2.467-2.01-3.857-4.593-4.439c-1.606-0.361-2.95-1.643-3.544-3.295c-0.959-2.67-3.427-3.715-5.217-5.488
			c-3.69-3.654-8.82-6.857-10.776-11.006c-2.388-5.064-5.92-8.998-8.729-13.555C33.11,73.96,34.774,58.648,44.06,49.697
			c8.414-8.111,25.461-10.271,35.676-1.076c2.437,2.193,4.289,1.271,6.681,0.096c10.216-5.017,20.411-5.615,30.341,0.834
			c4.938,3.208,7.816,8.036,10.153,13.26c-0.051,0.993,0.006,1.95,0.889,2.629c0,0-0.081,0.312-0.08,0.313
			C127.725,69.807,127.731,73.866,127.736,77.923z M39.577,71.313c-0.512,4.077,1.697,9.679,5.585,14.72
			c3.687,4.781,3.849,4.773,8.086,0.324c2.892-3.031,6.462-6.285,10.336-3.494c4.766,3.432,8.687,8.145,12.54,12.668
			c1.213,1.426,1.348,3.498,3.917,3.707c1.148,0.092,3.038,1.225,3.164,2.094c0.767,5.287,6.071,5.855,8.869,8.969
			c1.729,1.926,4.123,2.574,6.206,0.674c2.342-2.137,1.518-4.496-0.401-6.559c-1.021-1.096-2.143-2.098-3.198-3.16
			c-4.228-4.254-8.476-8.488-12.643-12.799c-0.75-0.775-1.771-1.881-0.628-3.031c1.02-1.023,2.217-0.439,3.149,0.301
			c0.906,0.721,1.669,1.623,2.485,2.453c4.558,4.629,9.099,9.277,13.674,13.891c1.947,1.965,4.04,2.299,6.074,0.146
			c1.896-2.004,1.346-3.912-0.433-5.68c-0.709-0.705-1.433-1.396-2.142-2.1c-4.376-4.342-8.787-8.652-13.098-13.059
			c-1.055-1.08-3.141-2.398-1.418-4.057c1.569-1.515,3.021,0.354,4.245,1.358c1.154,0.947,2.164,2.074,3.217,3.142
			c3.744,3.795,7.466,7.613,11.225,11.395c1.948,1.959,4.265,3.078,6.566,0.875c2.61-2.5,1.092-4.799-0.972-6.854
			c-7.079-7.057-14.188-14.075-21.194-21.199c-1.553-1.58-2.564-1.59-4.021,0.068c-2.303,2.623-4.628,5.279-7.264,7.551
			c-5.125,4.414-12.643,4.598-17.534,0.887c-2.189-1.661-2.623-2.943-0.377-5.055c4.608-4.335,8.912-8.994,13.463-13.394
			c2.5-2.417,2.036-3.908-0.777-5.69c-8.007-5.073-16.274-5.737-24.62-1.376C43.797,53.137,39.867,59.901,39.577,71.313z
			 M66.711,71.989c6.619,2.015,9.137,1.633,13.201-2.063c2.329-2.117,4.404-4.517,6.56-6.822c3.888-4.159,4.749-4.168,8.72-0.113
			c6.859,7.005,13.909,13.833,20.529,21.054c3.108,3.396,4.257,1.928,5.818-1.102c8.212-15.921-2.939-33.398-20.745-33.547
			c-7.367-0.062-13.392,1.684-18.493,6.507C77.021,60.89,72.163,66.323,66.711,71.989z M79.986,124.543
			c3.983-1.285,6.481-4.568,8.998-7.82c1.156-1.494,1.218-3.045-0.048-4.506c-1.384-1.6-3.236-1.908-4.921-0.889
			c-3.143,1.902-5.892,4.438-7.489,7.742C75.124,121.967,76.879,123.709,79.986,124.543z M63.883,107.802
			c3.666-1.121,6.127-4.27,8.455-7.506c1.191-1.654,1.196-3.479-0.384-4.975c-1.521-1.441-3.47-1.699-5.006-0.402
			c-2.394,2.02-4.798,4.18-6.604,6.703C58.403,104.334,60.315,107.734,63.883,107.802z M55.289,99.592
			c3.663-0.855,5.516-4.527,8.303-6.975c1.61-1.414,2.082-3.459,0.408-5.297c-1.718-1.891-3.845-2.078-5.733-0.441
			c-2.238,1.939-4.472,3.986-6.241,6.336C50.099,95.771,51.887,99.355,55.289,99.592z M81.529,106.488
			c0.146-2.754-2.921-4.85-5.652-3.473c-3.309,1.666-5.897,4.404-7.591,7.68c-1.395,2.695,0.81,5.551,3.758,5.332
			C74.893,115.818,81.382,109.291,81.529,106.488z"/>
		<path fill="#0FB2A1" d="M127.736,77.923c-0.005-4.058-0.011-8.116-0.017-12.175C129.777,69.803,129.751,73.863,127.736,77.923z"/>
		<path fill="#0FB2A1" d="M127.801,65.437c-0.883-0.679-0.938-1.636-0.889-2.629C127.927,63.442,127.94,64.413,127.801,65.437z"/>
		<path fill="#0FB2A1" d="M126.891,80.869c-0.031-0.992-0.003-1.962,0.902-2.633C127.937,79.265,127.92,80.24,126.891,80.869z"/>
		<path fill="#08B3A2" d="M39.577,71.313c0.29-11.412,4.221-18.175,12.085-22.284c8.345-4.361,16.613-3.697,24.62,1.376
			c2.813,1.782,3.277,3.273,0.777,5.69c-4.551,4.399-8.854,9.059-13.463,13.394c-2.246,2.111-1.813,3.394,0.377,5.055
			c4.892,3.71,12.409,3.527,17.534-0.887c2.636-2.271,4.961-4.928,7.264-7.552c1.456-1.657,2.469-1.647,4.021-0.067
			c7.007,7.124,14.115,14.144,21.194,21.199c2.063,2.055,3.582,4.354,0.972,6.854c-2.303,2.203-4.617,1.084-6.566-0.875
			c-3.759-3.781-7.479-7.6-11.225-11.395c-1.053-1.068-2.063-2.193-3.217-3.142c-1.226-1.003-2.676-2.873-4.245-1.358
			c-1.723,1.659,0.363,2.977,1.418,4.057c4.311,4.406,8.722,8.717,13.098,13.059c0.709,0.703,1.433,1.395,2.142,2.1
			c1.777,1.768,2.329,3.676,0.433,5.68c-2.034,2.152-4.127,1.818-6.074-0.146c-4.575-4.613-9.116-9.262-13.674-13.891
			c-0.816-0.83-1.579-1.732-2.485-2.453c-0.934-0.74-2.13-1.324-3.149-0.301c-1.143,1.15-0.121,2.256,0.628,3.031
			c4.167,4.311,8.416,8.545,12.643,12.799c1.057,1.063,2.179,2.064,3.198,3.16c1.919,2.063,2.743,4.422,0.401,6.559
			c-2.083,1.9-4.477,1.252-6.206-0.674c-2.798-3.113-8.104-3.682-8.869-8.969c-0.126-0.869-2.016-2.002-3.164-2.094
			c-2.569-0.209-2.704-2.281-3.917-3.707c-3.854-4.523-7.774-9.236-12.54-12.668c-3.875-2.791-7.444,0.463-10.336,3.494
			c-4.237,4.449-4.399,4.457-8.086-0.324C41.274,80.992,39.065,75.389,39.577,71.313z"/>
		<path fill="#08B3A2" d="M66.711,71.989c5.452-5.665,10.312-11.098,15.59-16.086c5.103-4.823,11.126-6.567,18.493-6.507
			c17.806,0.148,28.957,17.625,20.745,33.547c-1.563,3.029-2.71,4.496-5.818,1.102c-6.62-7.22-13.67-14.049-20.529-21.054
			c-3.971-4.055-4.832-4.045-8.72,0.113c-2.155,2.307-4.23,4.706-6.56,6.822C75.847,73.62,73.33,74.002,66.711,71.989z"/>
		<path fill="#0FB2A1" d="M79.986,124.543c-3.106-0.834-4.862-2.576-3.46-5.473c1.598-3.305,4.347-5.84,7.489-7.742
			c1.685-1.021,3.537-0.711,4.921,0.889c1.266,1.461,1.204,3.012,0.048,4.506C86.468,119.974,83.969,123.258,79.986,124.543z"/>
		<path fill="#0FB2A1" d="M63.883,107.802c-3.567-0.068-5.479-3.469-3.54-6.18c1.807-2.523,4.211-4.684,6.604-6.703
			c1.536-1.297,3.485-1.039,5.006,0.402c1.58,1.496,1.575,3.318,0.384,4.975C70.01,103.533,67.549,106.681,63.883,107.802z"/>
		<path fill="#0FB2A1" d="M55.289,99.592c-3.402-0.236-5.189-3.82-3.264-6.377c1.77-2.35,4.002-4.395,6.241-6.336
			c1.889-1.637,4.017-1.447,5.733,0.441c1.674,1.838,1.202,3.883-0.408,5.297C60.805,95.064,58.952,98.736,55.289,99.592z"/>
		<path fill="#0FB2A1" d="M81.529,106.488c-0.147,2.805-6.636,9.33-9.485,9.539c-2.949,0.219-5.152-2.637-3.758-5.332
			c1.693-3.273,4.282-6.014,7.591-7.68C78.608,101.638,81.676,103.734,81.529,106.488z"/>
	</g>
</g>
</svg>
