<?xml version="1.0" encoding="utf-8"?>
<!-- Generator: Adobe Illustrator 16.0.0, SVG Export Plug-In . SVG Version: 6.00 Build 0)  -->
<!DOCTYPE svg PUBLIC "-//W3C//DTD SVG 1.1//EN" "http://www.w3.org/Graphics/SVG/1.1/DTD/svg11.dtd">
<svg version="1.1" id="Layer_1" xmlns="http://www.w3.org/2000/svg" xmlns:xlink="http://www.w3.org/1999/xlink" x="0px" y="0px"
	 width="157.98px" height="157.98px" viewBox="0 0 157.98 157.98" enable-background="new 0 0 157.98 157.98" xml:space="preserve">
<g>
	<g>
		<path fill-rule="evenodd" clip-rule="evenodd" fill="#FEFEFE" d="M1,80.49C1,54.993,1.042,29.496,0.935,4
			C0.924,1.5,1.5,0.933,4,0.937c50.994,0.085,101.988,0.085,152.981,0c2.499-0.004,3.067,0.563,3.063,3.063
			c-0.085,50.994-0.085,101.988,0,152.981c0.004,2.499-0.563,3.067-3.063,3.063c-50.993-0.085-101.987-0.085-152.98,0
			c-2.499,0.004-3.076-0.563-3.065-3.063C1.042,131.483,1,105.987,1,80.49z M79.822,151.983c39.67,0.006,72.136-32.09,72.161-71.338
			c0.025-40.077-31.896-72.62-71.261-72.648C40.485,7.968,8.021,39.826,7.997,79.364C7.972,119.688,39.909,151.978,79.822,151.983z"
			/>
		<path fill-rule="evenodd" clip-rule="evenodd" fill="#02B4A3" d="M79.822,151.983c-39.914-0.006-71.85-32.296-71.825-72.619
			C8.021,39.826,40.485,7.968,80.723,7.997c39.365,0.028,71.286,32.571,71.261,72.648
			C151.958,119.894,119.492,151.989,79.822,151.983z M58.756,55.849c2.159,6.682,1.792,13.39,0.209,20.111
			c-0.616-0.544-1.291-1.035-1.838-1.641c-4.327-4.787-8.619-5.811-12.521-2.955c-3.8,2.782-3.969,7.342-0.828,12.949
			c2.431,4.339,4.606,8.825,6.761,13.312c3.667,7.633,7.079,15.386,12.333,22.147c3.722,4.79,8.34,7.414,14.538,7.18
			c4.49-0.17,9.048-0.522,13.473,0.03c9.363,1.171,15.437-3.74,20.809-10.283c3.038-3.701,4.145-8.262,5.407-12.737
			c1.477-9.318,1.439-18.639,0.021-27.958c-1.638-4.508-4.608-7.712-9.618-6.823c-2.824,0.502-4.286,0.278-6.155-1.986
			c-2.823-3.42-7.364-0.975-10.442-2.043c-3.111-1.082-5.272-5.796-9.564-4.696c-3.54,0.908-3.452-0.642-3.408-3.111
			c0.085-4.824,0.186-9.657-0.037-14.472c-0.229-4.955-3.832-8.492-8.472-8.789c-4.463-0.286-7.5,2.168-8.574,6.93
			c-2.188,2.675,0.5,6.305-1.754,8.967c-0.907-1.996-1.062-4.089-1.188-6.269c-0.308-5.332,2.01-9.166,6.738-11.016
			c4.465-1.749,8.874-1.354,12.876,2.144c4.119,3.598,4.394,7.678,2.938,12.432c-0.804,2.625-0.951,5.292,0.315,7.97
			c7.49-4.987,7.64-17.092,1.133-23.875c-6.364-6.634-17.112-6.884-23.635-0.45C50.789,38.3,50.987,48.553,58.756,55.849z"/>
		<path fill-rule="evenodd" clip-rule="evenodd" fill="#F4F7F7" d="M60.849,41.014c1.074-4.762,4.11-7.216,8.574-6.93
			c4.641,0.297,8.243,3.834,8.472,8.789c0.223,4.815,0.122,9.648,0.037,14.472c-0.044,2.469-0.131,4.019,3.408,3.111
			c4.292-1.101,6.453,3.614,9.564,4.696c3.078,1.069,7.619-1.377,10.442,2.043c1.869,2.264,3.331,2.488,6.155,1.986
			c5.01-0.889,7.98,2.314,9.618,6.823c-0.007,9.319-0.014,18.639-0.021,27.958c-1.263,4.476-2.369,9.036-5.407,12.737
			c-5.372,6.543-11.445,11.454-20.809,10.283c-4.425-0.553-8.983-0.2-13.473-0.03c-6.198,0.234-10.816-2.39-14.538-7.18
			c-5.254-6.762-8.667-14.515-12.333-22.147c-2.154-4.486-4.33-8.973-6.761-13.312c-3.142-5.607-2.973-10.167,0.828-12.949
			c3.902-2.856,8.193-1.832,12.521,2.955c0.547,0.605,1.222,1.097,1.839,1.642c3.364,2.065,1.923-1.253,1.928-1.983
			C60.965,62.989,60.89,52.001,60.849,41.014z M71.865,122.003c1.663,1.697,3.805,0.999,5.681,0.895
			c7.213-0.403,14.509,1.188,21.649-0.864c7.94-3.767,12.939-10.028,13.631-18.713c0.67-8.424,0.142-16.941,0.197-25.417
			c0.018-2.719-1.694-4.199-3.866-4.788c-2.362-0.642-4.341,0.644-4.967,3.027c-0.464,1.764-1.211,3.531-2.91,3.236
			c-0.975-0.169-1.381-2.378-1.322-3.977c0.104-2.898-0.118-5.954-3.699-6.582c-3.113-0.547-4.941,1.126-5.429,4.35
			c-0.145,0.956-1.123,1.796-2.235,1.491c-0.966-0.266-1.624-1.07-1.588-2.236c0.026-0.829,0.007-1.662-0.032-2.492
			c-0.123-2.648-0.848-5.188-3.758-5.69c-2.79-0.482-4.57,1.029-5.325,3.955c-0.656,2.544-2.298,2.435-4.021,0.794
			c0.036-7.762,0.129-15.523,0.067-23.284c-0.015-1.876,0.81-4.005-1.015-5.59c-1.384-2.134-3.263-2.61-5.525-1.573
			c-2.139,0.98-2.483,2.842-2.477,4.975c0.038,12.465,0.025,24.93,0.005,37.395c-0.002,1.445,0.45,3.23-1.281,3.97
			c-1.954,0.833-2.99-0.781-4.083-2.023c-2.392-2.718-4.804-5.382-7.686-7.65c-1.628-1.28-2.986-2.16-4.78-0.814
			c-1.968,1.477-2.531,3.355-1.239,5.67c1.938,3.468,3.89,6.936,5.631,10.505c4.059,8.318,7.504,16.962,12.839,24.601
			C66.292,117.984,68.22,120.979,71.865,122.003z"/>
		<path fill-rule="evenodd" clip-rule="evenodd" fill="#F0FAF9" d="M58.756,55.849c-7.769-7.296-7.967-17.549-0.482-24.932
			c6.523-6.434,17.271-6.184,23.635,0.45c6.507,6.783,6.357,18.888-1.133,23.875c-1.267-2.678-1.119-5.345-0.315-7.97
			c1.456-4.754,1.181-8.834-2.938-12.432c-4.003-3.498-8.412-3.893-12.876-2.144c-4.728,1.85-7.045,5.685-6.738,11.016
			c0.126,2.179,0.28,4.273,1.188,6.269C58.982,51.937,58.869,53.893,58.756,55.849z"/>
		<path fill-rule="evenodd" clip-rule="evenodd" fill="#129C8E" d="M58.756,55.849c0.113-1.956,0.226-3.912,0.339-5.868
			c2.253-2.663-0.435-6.292,1.754-8.967c0.041,10.988,0.116,21.976,0.044,32.963c-0.005,0.73,1.436,4.048-1.928,1.983
			C60.548,69.238,60.915,62.53,58.756,55.849z"/>
		<path fill-rule="evenodd" clip-rule="evenodd" fill="#129C8E" d="M117.1,103.962c0.007-9.319,0.014-18.64,0.021-27.958
			C118.539,85.323,118.576,94.644,117.1,103.962z"/>
		<path fill-rule="evenodd" clip-rule="evenodd" fill="#02B3A2" d="M73.871,68.99c1.723,1.641,3.365,1.75,4.021-0.794
			c0.755-2.925,2.535-4.437,5.325-3.955c2.91,0.503,3.635,3.042,3.758,5.69c0.039,0.83,0.059,1.663,0.032,2.492
			c-0.036,1.166,0.622,1.97,1.588,2.236c1.112,0.306,2.091-0.535,2.235-1.491c0.487-3.224,2.315-4.897,5.429-4.35
			c3.581,0.628,3.804,3.684,3.699,6.582c-0.059,1.599,0.348,3.808,1.322,3.977c1.699,0.295,2.446-1.472,2.91-3.236
			c0.626-2.383,2.604-3.668,4.967-3.027c2.172,0.589,3.884,2.069,3.866,4.788c-0.056,8.476,0.473,16.993-0.197,25.417
			c-0.691,8.685-5.69,14.946-13.632,18.713c-9.109-0.01-18.22-0.021-27.329-0.03c-3.645-1.023-5.574-4.019-7.538-6.832
			c-5.334-7.639-8.78-16.282-12.839-24.601c-1.741-3.569-3.694-7.037-5.631-10.505c-1.292-2.315-0.729-4.194,1.239-5.67
			c1.793-1.345,3.152-0.466,4.78,0.814c2.882,2.268,5.294,4.932,7.686,7.65c1.092,1.242,2.128,2.856,4.083,2.023
			c1.731-0.739,1.279-2.524,1.281-3.97c0.021-12.465,0.033-24.93-0.005-37.395c-0.006-2.133,0.338-3.995,2.477-4.975
			c2.262-1.037,4.141-0.561,5.525,1.573c0.023,5.43-0.116,10.867,0.121,16.287C73.228,60.599,72.013,64.904,73.871,68.99z"/>
		<path fill-rule="evenodd" clip-rule="evenodd" fill="#129C8E" d="M73.871,68.99c-1.858-4.086-0.643-8.391-0.827-12.587
			c-0.237-5.42-0.098-10.857-0.121-16.287c1.824,1.584,1,3.713,1.015,5.59C74,53.467,73.907,61.229,73.871,68.99z"/>
		<path fill-rule="evenodd" clip-rule="evenodd" fill="#129C8E" d="M71.865,122.003c9.109,0.01,18.22,0.021,27.329,0.03
			c-7.14,2.052-14.436,0.461-21.648,0.864C75.67,123.002,73.528,123.7,71.865,122.003z"/>
	</g>
</g>
</svg>
