<?xml version="1.0" encoding="utf-8"?>
<!-- Generator: Adobe Illustrator 16.0.0, SVG Export Plug-In . SVG Version: 6.00 Build 0)  -->
<!DOCTYPE svg PUBLIC "-//W3C//DTD SVG 1.1//EN" "http://www.w3.org/Graphics/SVG/1.1/DTD/svg11.dtd">
<svg version="1.1" id="Layer_1" xmlns="http://www.w3.org/2000/svg" xmlns:xlink="http://www.w3.org/1999/xlink" x="0px" y="0px"
	 width="157.98px" height="157.98px" viewBox="0 0 157.98 157.98" enable-background="new 0 0 157.98 157.98" xml:space="preserve">
<g>
	<g>
		<path fill-rule="evenodd" clip-rule="evenodd" fill="#FEFEFE" d="M159.98,81.031c0,25.31-0.038,50.62,0.061,75.93
			c0.01,2.446-0.485,3.092-3.036,3.087c-50.954-0.09-101.908-0.104-152.861,0.023c-2.992,0.007-3.21-0.886-3.206-3.441
			C1.021,105.843,1.027,55.056,0.926,4.269C0.92,1.543,1.409,0.913,4.226,0.92C55.012,1.03,105.8,1.045,156.587,0.895
			c3.274-0.01,3.463,1.013,3.453,3.706C159.939,30.076,159.98,55.554,159.98,81.031z M79.976,7.997
			c-39.419,0-71.944,32.135-71.979,71.115c-0.037,40.424,31.818,72.856,71.573,72.871c40.018,0.015,72.399-31.996,72.413-71.585
			C151.998,40.193,119.976,7.996,79.976,7.997z"/>
		<path fill-rule="evenodd" clip-rule="evenodd" fill="#02B4A3" d="M79.976,7.997c40-0.001,72.022,32.196,72.008,72.401
			c-0.014,39.589-32.396,71.6-72.413,71.585c-39.755-0.015-71.61-32.447-71.573-72.871C8.032,40.132,40.556,7.997,79.976,7.997z
			 M87.723,40.919c-6.716-0.005-12.792,1.908-17.969,6.252c-6.998,5.874-13.903,11.857-20.889,17.744
			c-3.025,2.548-3.356,5.804-0.744,8.207c3.92,3.605,1.815,5.273-1.198,7.475c-3.218,2.351-4.699,5.454-1.53,8.835
			c2.741,2.924,2.906,4.936-0.698,7.296c-3.757,2.46-2.828,5.718-0.251,8.48c2.37,2.541,5.125,5.63,8.743,1.977
			c2.615-2.642,4.367-2.199,6.238,0.522c2.644,3.847,5.618,3.453,8.811,0.708c2.901-2.493,5.979-4.802,8.715-7.465
			c2.322-2.261,3.724-2.282,5.891,0.396c3.394,4.196,5.448,4.1,9.542,0.556c4.515-3.905,9.017-7.826,13.533-11.73
			c8.728-7.545,12.061-19.75,8.233-30.184C109.769,48.049,99.849,40.892,87.723,40.919z M80.411,108.978
			c-5.27-0.008-9.528,4.287-9.463,9.543c0.061,4.91,4.275,9.195,9.169,9.321c5.11,0.133,9.561-4.146,9.684-9.308
			C89.923,113.42,85.565,108.984,80.411,108.978z"/>
		<path fill-rule="evenodd" clip-rule="evenodd" fill="#EEF5F5" d="M87.724,40.921c12.125-0.029,22.045,7.128,26.425,19.067
			c3.827,10.434,0.494,22.639-8.233,30.184c-4.517,3.904-9.019,7.825-13.533,11.73c-4.094,3.544-6.148,3.641-9.542-0.556
			c-2.167-2.679-3.568-2.657-5.891-0.396c-2.735,2.663-5.813,4.972-8.715,7.465c-3.193,2.745-6.167,3.139-8.811-0.708
			c-1.871-2.722-3.623-3.164-6.238-0.522c-3.618,3.653-6.373,0.564-8.743-1.977c-2.576-2.763-3.506-6.021,0.251-8.48
			c3.604-2.36,3.439-4.372,0.698-7.296c-3.169-3.381-1.688-6.484,1.53-8.835c3.014-2.201,5.118-3.87,1.198-7.475
			c-2.613-2.403-2.281-5.659,0.744-8.207c6.986-5.887,13.892-11.871,20.889-17.744C74.931,42.827,81.007,40.914,87.724,40.921z
			 M62.434,67.451c1.212,2.616,0.126,3.9-1.4,5.173c-4.087,3.411-8.005,7.031-12.182,10.325c-2.372,1.87-3.242,3.252-0.837,5.898
			c2.146,2.361,3.55,2.113,5.659,0.11c3.01-2.859,6.245-5.492,9.489-8.088c0.855-0.685,1.747-2.562,3.175-1.115
			c1.719,1.742-0.305,2.654-1.295,3.519c-5.631,4.916-11.268,9.83-17.05,14.566c-2.193,1.795-3.705,3.271-1.451,6.069
			c2.524,3.13,4.496,1.361,6.614-0.44c5.554-4.725,11.1-9.464,16.743-14.081c0.917-0.75,1.691-3.274,3.392-1.386
			c1.932,2.146-0.946,2.781-1.869,3.662c-3,2.864-6.235,5.493-9.479,8.088c-2.03,1.624-3.444,2.983-1.147,5.63
			c1.983,2.284,3.664,2.4,5.857,0.511c6.669-5.75,13.361-11.473,20.094-17.146c1.281-1.08,2.423-2.142,0.826-3.604
			c-2.582-2.365-3.387-5.609-4.776-8.6c-2.781-5.986,0.354-16.352,6.093-19.562c1.164-0.651,2.533-1.546,3.498,0.024
			c0.968,1.575-0.854,1.738-1.624,2.384c-6.612,5.556-7.973,14.331-3.421,21.494c1.514,2.382,5.857,3.716,4.883,6.478
			c-0.924,2.617-4.387,4.338-6.735,6.452c-0.123,0.111-0.252,0.222-0.394,0.307c-2.855,1.706-2.087,3.586-0.424,5.707
			c1.792,2.284,3.436,1.953,5.382,0.229c5.23-4.631,10.721-8.987,15.75-13.823c7.889-7.584,8.493-21.274,3.427-30.836
			c-6.897-13.021-29.709-13.511-39.092-4.949c-6.137,5.601-12.464,10.998-18.798,16.377c-1.707,1.449-3.055,2.655-1.164,4.846
			c1.647,1.909,3.328,3.386,5.831,1.209C58,71.145,60.042,69.467,62.434,67.451z"/>
		<path fill-rule="evenodd" clip-rule="evenodd" fill="#DFEDEC" d="M80.411,108.978c5.154,0.007,9.512,4.442,9.39,9.557
			c-0.123,5.162-4.573,9.44-9.684,9.308c-4.894-0.126-9.108-4.411-9.169-9.321C70.883,113.265,75.141,108.97,80.411,108.978z
			 M87.767,118.596c0.125-3.741-3.388-7.419-7.186-7.526c-3.875-0.109-7.385,3.229-7.504,7.135
			c-0.117,3.833,3.261,7.441,7.114,7.602C83.851,125.957,87.641,122.35,87.767,118.596z"/>
		<path fill-rule="evenodd" clip-rule="evenodd" fill="#07B2A1" d="M62.434,67.451c-2.392,2.016-4.434,3.694-6.426,5.428
			c-2.503,2.177-4.184,0.7-5.831-1.209c-1.891-2.191-0.543-3.397,1.164-4.846c6.334-5.379,12.661-10.776,18.798-16.377
			c9.383-8.563,32.195-8.072,39.092,4.949c5.066,9.562,4.462,23.252-3.427,30.836c-5.029,4.836-10.52,9.192-15.75,13.823
			c-1.946,1.724-3.59,2.055-5.382-0.229c-1.663-2.121-2.432-4.001,0.424-5.707c0.142-0.085,0.271-0.195,0.394-0.307
			c2.349-2.114,5.812-3.835,6.735-6.452c0.975-2.762-3.369-4.096-4.883-6.478c-4.552-7.163-3.191-15.938,3.421-21.494
			c0.77-0.646,2.592-0.81,1.624-2.384c-0.965-1.57-2.334-0.676-3.498-0.024c-5.738,3.21-8.874,13.576-6.093,19.562
			c1.39,2.991,2.194,6.235,4.776,8.6c1.597,1.463,0.455,2.524-0.826,3.604c-6.732,5.674-13.425,11.396-20.094,17.146
			c-2.194,1.89-3.875,1.773-5.857-0.511c-2.296-2.646-0.882-4.006,1.147-5.63c3.243-2.595,6.478-5.224,9.479-8.088
			c0.923-0.881,3.801-1.517,1.869-3.662c-1.7-1.889-2.475,0.636-3.392,1.386c-5.643,4.617-11.188,9.356-16.743,14.081
			c-2.118,1.802-4.09,3.57-6.614,0.44c-2.254-2.798-0.743-4.274,1.451-6.069c5.782-4.736,11.418-9.65,17.05-14.566
			c0.99-0.864,3.014-1.776,1.295-3.519c-1.428-1.446-2.319,0.431-3.175,1.115c-3.245,2.596-6.479,5.229-9.489,8.088
			c-2.109,2.003-3.512,2.251-5.659-0.11c-2.405-2.646-1.535-4.028,0.837-5.898c4.177-3.294,8.094-6.915,12.182-10.325
			C62.56,71.351,63.646,70.066,62.434,67.451z"/>
		<path fill-rule="evenodd" clip-rule="evenodd" fill="#0CB1A1" d="M87.767,118.596c-0.126,3.754-3.916,7.361-7.575,7.21
			c-3.854-0.16-7.231-3.769-7.114-7.602c0.119-3.906,3.629-7.244,7.504-7.135C84.379,111.177,87.892,114.854,87.767,118.596z"/>
	</g>
</g>
</svg>
